<mxfile host="Electron" modified="2023-10-14T06:40:34.749Z" agent="Mozilla/5.0 (Windows NT 10.0; Win64; x64) AppleWebKit/537.36 (KHTML, like Gecko) draw.io/21.2.1 Chrome/112.0.5615.87 Electron/24.1.2 Safari/537.36" etag="FNnGjAYfVf-ojEIA1pLw" version="21.2.1" type="device">
  <diagram name="Страница 1" id="4Ni1w1U7g_9RAQVSTvCF">
    <mxGraphModel dx="1036" dy="614" grid="1" gridSize="10" guides="1" tooltips="1" connect="1" arrows="1" fold="1" page="1" pageScale="1" pageWidth="827" pageHeight="1169" math="0" shadow="0">
      <root>
        <mxCell id="0" />
        <mxCell id="1" parent="0" />
        <mxCell id="d2NC50qOKZiDpmPB8j_Q-19" style="edgeStyle=orthogonalEdgeStyle;rounded=0;orthogonalLoop=1;jettySize=auto;html=1;entryX=0;entryY=0.25;entryDx=0;entryDy=0;" edge="1" parent="1" source="d2NC50qOKZiDpmPB8j_Q-1" target="d2NC50qOKZiDpmPB8j_Q-17">
          <mxGeometry relative="1" as="geometry">
            <mxPoint x="30" y="190" as="targetPoint" />
            <Array as="points">
              <mxPoint x="55" y="105" />
            </Array>
          </mxGeometry>
        </mxCell>
        <mxCell id="d2NC50qOKZiDpmPB8j_Q-1" value="a" style="rounded=1;whiteSpace=wrap;html=1;" vertex="1" parent="1">
          <mxGeometry x="40" y="560" width="30" height="20" as="geometry" />
        </mxCell>
        <mxCell id="d2NC50qOKZiDpmPB8j_Q-20" style="edgeStyle=orthogonalEdgeStyle;rounded=0;orthogonalLoop=1;jettySize=auto;html=1;exitX=0.5;exitY=0;exitDx=0;exitDy=0;entryX=0.25;entryY=1;entryDx=0;entryDy=0;" edge="1" parent="1" source="d2NC50qOKZiDpmPB8j_Q-2" target="d2NC50qOKZiDpmPB8j_Q-14">
          <mxGeometry relative="1" as="geometry" />
        </mxCell>
        <mxCell id="d2NC50qOKZiDpmPB8j_Q-2" value="c" style="rounded=1;whiteSpace=wrap;html=1;" vertex="1" parent="1">
          <mxGeometry x="90" y="560" width="30" height="20" as="geometry" />
        </mxCell>
        <mxCell id="d2NC50qOKZiDpmPB8j_Q-22" style="edgeStyle=orthogonalEdgeStyle;rounded=0;orthogonalLoop=1;jettySize=auto;html=1;exitX=0.5;exitY=0;exitDx=0;exitDy=0;" edge="1" parent="1" source="d2NC50qOKZiDpmPB8j_Q-3">
          <mxGeometry relative="1" as="geometry">
            <mxPoint x="155" y="220" as="targetPoint" />
          </mxGeometry>
        </mxCell>
        <mxCell id="d2NC50qOKZiDpmPB8j_Q-3" value="e" style="rounded=1;whiteSpace=wrap;html=1;" vertex="1" parent="1">
          <mxGeometry x="140" y="560" width="30" height="20" as="geometry" />
        </mxCell>
        <mxCell id="d2NC50qOKZiDpmPB8j_Q-24" style="edgeStyle=orthogonalEdgeStyle;rounded=0;orthogonalLoop=1;jettySize=auto;html=1;entryX=0.25;entryY=1;entryDx=0;entryDy=0;" edge="1" parent="1" source="d2NC50qOKZiDpmPB8j_Q-4" target="d2NC50qOKZiDpmPB8j_Q-17">
          <mxGeometry relative="1" as="geometry">
            <Array as="points">
              <mxPoint x="205" y="140" />
              <mxPoint x="368" y="140" />
            </Array>
          </mxGeometry>
        </mxCell>
        <mxCell id="d2NC50qOKZiDpmPB8j_Q-4" value="a" style="rounded=1;whiteSpace=wrap;html=1;" vertex="1" parent="1">
          <mxGeometry x="190" y="560" width="30" height="20" as="geometry" />
        </mxCell>
        <mxCell id="d2NC50qOKZiDpmPB8j_Q-27" style="edgeStyle=orthogonalEdgeStyle;rounded=0;orthogonalLoop=1;jettySize=auto;html=1;exitX=0.5;exitY=0;exitDx=0;exitDy=0;entryX=0.5;entryY=1;entryDx=0;entryDy=0;" edge="1" parent="1" source="d2NC50qOKZiDpmPB8j_Q-5" target="d2NC50qOKZiDpmPB8j_Q-26">
          <mxGeometry relative="1" as="geometry" />
        </mxCell>
        <mxCell id="d2NC50qOKZiDpmPB8j_Q-5" value="d" style="rounded=1;whiteSpace=wrap;html=1;" vertex="1" parent="1">
          <mxGeometry x="240" y="560" width="30" height="20" as="geometry" />
        </mxCell>
        <mxCell id="d2NC50qOKZiDpmPB8j_Q-30" style="edgeStyle=orthogonalEdgeStyle;rounded=0;orthogonalLoop=1;jettySize=auto;html=1;exitX=0.5;exitY=0;exitDx=0;exitDy=0;entryX=0.5;entryY=1;entryDx=0;entryDy=0;" edge="1" parent="1" source="d2NC50qOKZiDpmPB8j_Q-6" target="d2NC50qOKZiDpmPB8j_Q-29">
          <mxGeometry relative="1" as="geometry">
            <Array as="points">
              <mxPoint x="305" y="425" />
              <mxPoint x="300" y="425" />
              <mxPoint x="300" y="290" />
            </Array>
          </mxGeometry>
        </mxCell>
        <mxCell id="d2NC50qOKZiDpmPB8j_Q-6" value="e" style="rounded=1;whiteSpace=wrap;html=1;" vertex="1" parent="1">
          <mxGeometry x="290" y="560" width="30" height="20" as="geometry" />
        </mxCell>
        <mxCell id="d2NC50qOKZiDpmPB8j_Q-38" style="edgeStyle=orthogonalEdgeStyle;rounded=0;orthogonalLoop=1;jettySize=auto;html=1;exitX=0.5;exitY=0;exitDx=0;exitDy=0;entryX=0.5;entryY=1;entryDx=0;entryDy=0;" edge="1" parent="1" source="d2NC50qOKZiDpmPB8j_Q-7" target="d2NC50qOKZiDpmPB8j_Q-33">
          <mxGeometry relative="1" as="geometry" />
        </mxCell>
        <mxCell id="d2NC50qOKZiDpmPB8j_Q-7" value="a" style="rounded=1;whiteSpace=wrap;html=1;" vertex="1" parent="1">
          <mxGeometry x="340" y="560" width="30" height="20" as="geometry" />
        </mxCell>
        <mxCell id="d2NC50qOKZiDpmPB8j_Q-40" style="edgeStyle=orthogonalEdgeStyle;rounded=0;orthogonalLoop=1;jettySize=auto;html=1;exitX=0.5;exitY=0;exitDx=0;exitDy=0;entryX=0.25;entryY=1;entryDx=0;entryDy=0;" edge="1" parent="1" source="d2NC50qOKZiDpmPB8j_Q-8" target="d2NC50qOKZiDpmPB8j_Q-37">
          <mxGeometry relative="1" as="geometry">
            <Array as="points">
              <mxPoint x="405" y="290" />
              <mxPoint x="410" y="290" />
              <mxPoint x="410" y="170" />
              <mxPoint x="568" y="170" />
            </Array>
          </mxGeometry>
        </mxCell>
        <mxCell id="d2NC50qOKZiDpmPB8j_Q-8" value="ba" style="rounded=1;whiteSpace=wrap;html=1;" vertex="1" parent="1">
          <mxGeometry x="390" y="560" width="30" height="20" as="geometry" />
        </mxCell>
        <mxCell id="d2NC50qOKZiDpmPB8j_Q-41" style="edgeStyle=orthogonalEdgeStyle;rounded=0;orthogonalLoop=1;jettySize=auto;html=1;exitX=0.5;exitY=0;exitDx=0;exitDy=0;entryX=0.5;entryY=1;entryDx=0;entryDy=0;" edge="1" parent="1" source="d2NC50qOKZiDpmPB8j_Q-9" target="d2NC50qOKZiDpmPB8j_Q-34">
          <mxGeometry relative="1" as="geometry" />
        </mxCell>
        <mxCell id="d2NC50qOKZiDpmPB8j_Q-9" value="a" style="rounded=1;whiteSpace=wrap;html=1;" vertex="1" parent="1">
          <mxGeometry x="440" y="560" width="30" height="20" as="geometry" />
        </mxCell>
        <mxCell id="d2NC50qOKZiDpmPB8j_Q-43" style="edgeStyle=orthogonalEdgeStyle;rounded=0;orthogonalLoop=1;jettySize=auto;html=1;exitX=0.5;exitY=0;exitDx=0;exitDy=0;entryX=0.75;entryY=1;entryDx=0;entryDy=0;" edge="1" parent="1" source="d2NC50qOKZiDpmPB8j_Q-10" target="d2NC50qOKZiDpmPB8j_Q-37">
          <mxGeometry relative="1" as="geometry">
            <Array as="points">
              <mxPoint x="505" y="190" />
              <mxPoint x="583" y="190" />
            </Array>
          </mxGeometry>
        </mxCell>
        <mxCell id="d2NC50qOKZiDpmPB8j_Q-10" value="ba" style="rounded=1;whiteSpace=wrap;html=1;" vertex="1" parent="1">
          <mxGeometry x="490" y="560" width="30" height="20" as="geometry" />
        </mxCell>
        <mxCell id="d2NC50qOKZiDpmPB8j_Q-44" style="edgeStyle=orthogonalEdgeStyle;rounded=0;orthogonalLoop=1;jettySize=auto;html=1;exitX=0.5;exitY=0;exitDx=0;exitDy=0;entryX=0.5;entryY=1;entryDx=0;entryDy=0;" edge="1" parent="1" source="d2NC50qOKZiDpmPB8j_Q-11" target="d2NC50qOKZiDpmPB8j_Q-35">
          <mxGeometry relative="1" as="geometry" />
        </mxCell>
        <mxCell id="d2NC50qOKZiDpmPB8j_Q-11" value="a" style="rounded=1;whiteSpace=wrap;html=1;" vertex="1" parent="1">
          <mxGeometry x="540" y="560" width="30" height="20" as="geometry" />
        </mxCell>
        <mxCell id="d2NC50qOKZiDpmPB8j_Q-47" style="edgeStyle=orthogonalEdgeStyle;rounded=0;orthogonalLoop=1;jettySize=auto;html=1;exitX=0.5;exitY=0;exitDx=0;exitDy=0;entryX=1;entryY=0.5;entryDx=0;entryDy=0;" edge="1" parent="1" source="d2NC50qOKZiDpmPB8j_Q-12" target="d2NC50qOKZiDpmPB8j_Q-36">
          <mxGeometry relative="1" as="geometry" />
        </mxCell>
        <mxCell id="d2NC50qOKZiDpmPB8j_Q-12" value="bac" style="rounded=1;whiteSpace=wrap;html=1;" vertex="1" parent="1">
          <mxGeometry x="590" y="560" width="30" height="20" as="geometry" />
        </mxCell>
        <mxCell id="d2NC50qOKZiDpmPB8j_Q-48" style="edgeStyle=orthogonalEdgeStyle;rounded=0;orthogonalLoop=1;jettySize=auto;html=1;exitX=0.5;exitY=0;exitDx=0;exitDy=0;entryX=1;entryY=0.5;entryDx=0;entryDy=0;" edge="1" parent="1" source="d2NC50qOKZiDpmPB8j_Q-13" target="d2NC50qOKZiDpmPB8j_Q-37">
          <mxGeometry relative="1" as="geometry" />
        </mxCell>
        <mxCell id="d2NC50qOKZiDpmPB8j_Q-13" value="b" style="rounded=1;whiteSpace=wrap;html=1;" vertex="1" parent="1">
          <mxGeometry x="640" y="560" width="30" height="20" as="geometry" />
        </mxCell>
        <mxCell id="d2NC50qOKZiDpmPB8j_Q-21" style="edgeStyle=orthogonalEdgeStyle;rounded=0;orthogonalLoop=1;jettySize=auto;html=1;exitX=0.5;exitY=0;exitDx=0;exitDy=0;entryX=0.5;entryY=1;entryDx=0;entryDy=0;" edge="1" parent="1" source="d2NC50qOKZiDpmPB8j_Q-14" target="d2NC50qOKZiDpmPB8j_Q-15">
          <mxGeometry relative="1" as="geometry" />
        </mxCell>
        <mxCell id="d2NC50qOKZiDpmPB8j_Q-14" value="x" style="rounded=1;whiteSpace=wrap;html=1;" vertex="1" parent="1">
          <mxGeometry x="110" y="360" width="30" height="20" as="geometry" />
        </mxCell>
        <mxCell id="d2NC50qOKZiDpmPB8j_Q-23" style="edgeStyle=orthogonalEdgeStyle;rounded=0;orthogonalLoop=1;jettySize=auto;html=1;exitX=0.5;exitY=0;exitDx=0;exitDy=0;entryX=0;entryY=1;entryDx=0;entryDy=0;" edge="1" parent="1" source="d2NC50qOKZiDpmPB8j_Q-15" target="d2NC50qOKZiDpmPB8j_Q-17">
          <mxGeometry relative="1" as="geometry">
            <Array as="points">
              <mxPoint x="155" y="120" />
            </Array>
          </mxGeometry>
        </mxCell>
        <mxCell id="d2NC50qOKZiDpmPB8j_Q-15" value="x" style="rounded=1;whiteSpace=wrap;html=1;" vertex="1" parent="1">
          <mxGeometry x="140" y="200" width="30" height="20" as="geometry" />
        </mxCell>
        <mxCell id="d2NC50qOKZiDpmPB8j_Q-28" style="edgeStyle=orthogonalEdgeStyle;rounded=0;orthogonalLoop=1;jettySize=auto;html=1;exitX=0.5;exitY=0;exitDx=0;exitDy=0;entryX=0.5;entryY=1;entryDx=0;entryDy=0;" edge="1" parent="1" source="d2NC50qOKZiDpmPB8j_Q-17" target="d2NC50qOKZiDpmPB8j_Q-18">
          <mxGeometry relative="1" as="geometry" />
        </mxCell>
        <mxCell id="d2NC50qOKZiDpmPB8j_Q-17" value="A" style="rounded=1;whiteSpace=wrap;html=1;" vertex="1" parent="1">
          <mxGeometry x="360" y="100" width="30" height="20" as="geometry" />
        </mxCell>
        <mxCell id="d2NC50qOKZiDpmPB8j_Q-18" value="s" style="rounded=1;whiteSpace=wrap;html=1;" vertex="1" parent="1">
          <mxGeometry x="360" y="30" width="30" height="20" as="geometry" />
        </mxCell>
        <mxCell id="d2NC50qOKZiDpmPB8j_Q-31" style="edgeStyle=orthogonalEdgeStyle;rounded=0;orthogonalLoop=1;jettySize=auto;html=1;exitX=0.5;exitY=0;exitDx=0;exitDy=0;entryX=0.5;entryY=1;entryDx=0;entryDy=0;" edge="1" parent="1" source="d2NC50qOKZiDpmPB8j_Q-26" target="d2NC50qOKZiDpmPB8j_Q-29">
          <mxGeometry relative="1" as="geometry" />
        </mxCell>
        <mxCell id="d2NC50qOKZiDpmPB8j_Q-26" value="z" style="rounded=1;whiteSpace=wrap;html=1;" vertex="1" parent="1">
          <mxGeometry x="240" y="380" width="30" height="20" as="geometry" />
        </mxCell>
        <mxCell id="d2NC50qOKZiDpmPB8j_Q-32" style="edgeStyle=orthogonalEdgeStyle;rounded=0;orthogonalLoop=1;jettySize=auto;html=1;exitX=0.5;exitY=0;exitDx=0;exitDy=0;entryX=0.5;entryY=1;entryDx=0;entryDy=0;" edge="1" parent="1" source="d2NC50qOKZiDpmPB8j_Q-29" target="d2NC50qOKZiDpmPB8j_Q-17">
          <mxGeometry relative="1" as="geometry" />
        </mxCell>
        <mxCell id="d2NC50qOKZiDpmPB8j_Q-29" value="z" style="rounded=1;whiteSpace=wrap;html=1;" vertex="1" parent="1">
          <mxGeometry x="260" y="270" width="30" height="20" as="geometry" />
        </mxCell>
        <mxCell id="d2NC50qOKZiDpmPB8j_Q-39" style="edgeStyle=orthogonalEdgeStyle;rounded=0;orthogonalLoop=1;jettySize=auto;html=1;exitX=0.5;exitY=0;exitDx=0;exitDy=0;entryX=0;entryY=1;entryDx=0;entryDy=0;" edge="1" parent="1" source="d2NC50qOKZiDpmPB8j_Q-33" target="d2NC50qOKZiDpmPB8j_Q-37">
          <mxGeometry relative="1" as="geometry">
            <Array as="points">
              <mxPoint x="355" y="295" />
              <mxPoint x="400" y="295" />
              <mxPoint x="400" y="160" />
            </Array>
          </mxGeometry>
        </mxCell>
        <mxCell id="d2NC50qOKZiDpmPB8j_Q-33" value="v" style="rounded=1;whiteSpace=wrap;html=1;" vertex="1" parent="1">
          <mxGeometry x="340" y="430" width="30" height="20" as="geometry" />
        </mxCell>
        <mxCell id="d2NC50qOKZiDpmPB8j_Q-42" style="edgeStyle=orthogonalEdgeStyle;rounded=0;orthogonalLoop=1;jettySize=auto;html=1;exitX=0.5;exitY=0;exitDx=0;exitDy=0;entryX=0.5;entryY=1;entryDx=0;entryDy=0;" edge="1" parent="1" source="d2NC50qOKZiDpmPB8j_Q-34" target="d2NC50qOKZiDpmPB8j_Q-37">
          <mxGeometry relative="1" as="geometry">
            <Array as="points">
              <mxPoint x="455" y="180" />
              <mxPoint x="575" y="180" />
            </Array>
          </mxGeometry>
        </mxCell>
        <mxCell id="d2NC50qOKZiDpmPB8j_Q-34" value="v" style="rounded=1;whiteSpace=wrap;html=1;" vertex="1" parent="1">
          <mxGeometry x="440" y="430" width="30" height="20" as="geometry" />
        </mxCell>
        <mxCell id="d2NC50qOKZiDpmPB8j_Q-45" style="edgeStyle=orthogonalEdgeStyle;rounded=0;orthogonalLoop=1;jettySize=auto;html=1;exitX=0.5;exitY=0;exitDx=0;exitDy=0;entryX=0.5;entryY=1;entryDx=0;entryDy=0;" edge="1" parent="1" source="d2NC50qOKZiDpmPB8j_Q-35" target="d2NC50qOKZiDpmPB8j_Q-36">
          <mxGeometry relative="1" as="geometry" />
        </mxCell>
        <mxCell id="d2NC50qOKZiDpmPB8j_Q-35" value="v" style="rounded=1;whiteSpace=wrap;html=1;" vertex="1" parent="1">
          <mxGeometry x="540" y="430" width="30" height="20" as="geometry" />
        </mxCell>
        <mxCell id="d2NC50qOKZiDpmPB8j_Q-46" style="edgeStyle=orthogonalEdgeStyle;rounded=0;orthogonalLoop=1;jettySize=auto;html=1;exitX=0.5;exitY=0;exitDx=0;exitDy=0;entryX=1;entryY=1;entryDx=0;entryDy=0;" edge="1" parent="1" source="d2NC50qOKZiDpmPB8j_Q-36" target="d2NC50qOKZiDpmPB8j_Q-37">
          <mxGeometry relative="1" as="geometry" />
        </mxCell>
        <mxCell id="d2NC50qOKZiDpmPB8j_Q-36" value="f" style="rounded=1;whiteSpace=wrap;html=1;" vertex="1" parent="1">
          <mxGeometry x="560" y="330" width="30" height="20" as="geometry" />
        </mxCell>
        <mxCell id="d2NC50qOKZiDpmPB8j_Q-49" style="edgeStyle=orthogonalEdgeStyle;rounded=0;orthogonalLoop=1;jettySize=auto;html=1;exitX=0.5;exitY=0;exitDx=0;exitDy=0;entryX=1;entryY=0.5;entryDx=0;entryDy=0;" edge="1" parent="1" source="d2NC50qOKZiDpmPB8j_Q-37" target="d2NC50qOKZiDpmPB8j_Q-17">
          <mxGeometry relative="1" as="geometry" />
        </mxCell>
        <mxCell id="d2NC50qOKZiDpmPB8j_Q-37" value="f" style="rounded=1;whiteSpace=wrap;html=1;" vertex="1" parent="1">
          <mxGeometry x="560" y="140" width="30" height="20" as="geometry" />
        </mxCell>
      </root>
    </mxGraphModel>
  </diagram>
</mxfile>
